# File created by Blade
# Date/Time:  Mon Sep 29 17:58:21 2014
# Frame Rate: 120.000 fps
#------------------------------------------------------
:FULLY-SPECIFIED
:DEGREES
635
root -0.603547 12.750511 -8.165211 47.671231 6.005283 -1.166986
Spine 45.874346 7.675320 5.438618
Head 42.749169 -16.030094 -2.580324
LeftShoulder 18.327435 -18.683597 23.841573
LeftArm 37.086581 13.742700 -27.981189
LeftForeArm 64.997658 -0.000000 84.910094
LeftHand -36.501312 -0.000000 33.479132
LeftHandThumb1 -26.253704 0.000000 33.147579
RightShoulder 3.641450 32.455195 -29.692044
RightArm 22.767634 -34.326034 33.879480
RightForeArm -55.142898 -0.000000 87.015807
RightHand -7.855883 -0.000000 -23.089602
RightHandThumb1 -24.326973 -0.000000 -32.862282
LeftUpLeg -141.031640 39.628007 -13.024327
LeftLeg 126.717077 -0.000000 -0.000000
LeftFoot -30.247619 -14.742320 -22.167137
LeftToeBase 7.372983 -0.000000 -0.000000
RightUpLeg -135.584142 -32.807544 10.185649
RightLeg 130.991914 -0.000000 -0.000000
RightFoot -36.701276 -1.065521 21.059153
RightToeBase 3.394642 -0.000000 -0.000000
636
root -0.598171 12.790413 -8.153502 47.834517 6.013561 -1.154805
Spine 45.879504 7.688957 5.419033
Head 42.808848 -16.113453 -2.522565
LeftShoulder 18.319072 -18.852929 23.867211
LeftArm 37.096127 13.784577 -28.111500
LeftForeArm 65.110038 0.000000 84.827034
LeftHand -36.511041 -0.000000 33.566213
LeftHandThumb1 -26.253704 0.000000 33.147579
RightShoulder 3.648724 32.618632 -29.716070
RightArm 22.728117 -34.393978 34.017721
RightForeArm -55.441586 -0.000000 86.801870
RightHand -7.828215 -0.000000 -23.259705
RightHandThumb1 -24.326973 -0.000000 -32.862282
LeftUpLeg -141.048258 39.511241 -13.089977
LeftLeg 126.640567 -0.000000 -0.000000
LeftFoot -30.309866 -14.623615 -22.150898
LeftToeBase 7.403653 -0.000000 -0.000000
RightUpLeg -135.535935 -32.776197 10.133300
RightLeg 130.878514 -0.000000 -0.000000
RightFoot -36.713959 -1.055678 21.113818
RightToeBase 3.434675 -0.000000 -0.000000
637
root -0.593966 12.826877 -8.141417 47.989716 5.993437 -1.156732
Spine 45.888530 7.736041 5.379757
Head 42.904488 -16.197950 -2.486848
LeftShoulder 18.308542 -19.075352 23.903727
LeftArm 37.066556 13.896927 -28.281049
LeftForeArm 65.278542 0.000000 84.749397
LeftHand -36.550720 -0.000000 33.757259
LeftHandThumb1 -26.253704 0.000000 33.147579
RightShoulder 3.661077 32.733989 -29.753283
RightArm 22.658358 -34.405141 34.195324
RightForeArm -55.687069 -0.000000 86.641666
RightHand -7.738387 -0.000000 -23.416729
RightHandThumb1 -24.326973 -0.000000 -32.862282
LeftUpLeg -141.094303 39.443878 -13.183716
LeftLeg 126.591251 -0.000000 -0.000000
LeftFoot -30.312352 -14.517528 -22.130182
LeftToeBase 7.316521 -0.000000 -0.000000
RightUpLeg -135.480875 -32.711552 10.056747
RightLeg 130.775807 -0.000000 -0.000000
RightFoot -36.718286 -1.010153 21.187904
RightToeBase 3.389341 -0.000000 -0.000000
638
root -0.585999 12.864941 -8.134969 48.188393 6.067788 -1.140852
Spine 45.837171 7.703908 5.448481
Head 43.012773 -16.347087 -2.462294
LeftShoulder 18.314155 -19.214912 23.932690
LeftArm 37.090932 13.947138 -28.467661
LeftForeArm 65.492091 -0.000000 84.683058
LeftHand -36.644707 -0.000000 33.841157
LeftHandThumb1 -26.253704 0.000000 33.147579
RightShoulder 3.636637 32.754914 -29.767415
RightArm 22.701612 -34.416701 34.156585
RightForeArm -55.755813 -0.000000 86.577657
RightHand -7.844912 -0.000000 -23.515303
RightHandThumb1 -24.326973 -0.000000 -32.862282
LeftUpLeg -141.146798 39.261898 -13.203721
LeftLeg 126.508841 -0.000000 -0.000000
LeftFoot -30.339299 -14.434079 -22.156826
LeftToeBase 7.249821 -0.000000 -0.000000
RightUpLeg -135.529166 -32.728511 10.138669
RightLeg 130.659589 -0.000000 -0.000000
RightFoot -36.719343 -1.016279 21.199571
RightToeBase 3.335164 -0.000000 -0.000000
639
root -0.579989 12.900288 -8.124453 48.330282 6.105054 -1.138071
Spine 45.869132 7.782450 5.520098
Head 43.093859 -16.609327 -2.305676
LeftShoulder 18.365871 -19.467263 23.987086
LeftArm 37.116378 14.085306 -28.676296
LeftForeArm 65.429920 -0.000000 84.671157
LeftHand -36.904244 -0.000000 33.844928
LeftHandThumb1 -26.253704 0.000000 33.147579
RightShoulder 3.599547 32.758971 -29.767505
RightArm 22.631017 -34.414623 34.149082
RightForeArm -55.816921 -0.000000 86.564241
RightHand -7.988867 -0.000000 -23.822844
RightHandThumb1 -24.326973 -0.000000 -32.862282
LeftUpLeg -141.155507 39.156190 -13.229412
LeftLeg 126.436753 -0.000000 -0.000000
LeftFoot -30.377122 -14.377722 -22.136854
LeftToeBase 7.280313 -0.000000 -0.000000
RightUpLeg -135.490143 -32.699548 10.134520
RightLeg 130.558319 -0.000000 -0.000000
RightFoot -36.746259 -1.069922 21.232527
RightToeBase 3.365255 -0.000000 -0.000000
640
root -0.574895 12.932573 -8.114269 48.519384 6.124320 -1.138851
Spine 45.801486 7.806551 5.510976
Head 43.273142 -16.701090 -2.245370
LeftShoulder 18.339116 -19.592924 23.982841
LeftArm 37.160101 14.186203 -28.782480
LeftForeArm 65.612226 0.000000 84.612422
LeftHand -36.972645 -0.000000 33.959352
LeftHandThumb1 -26.253704 0.000000 33.147579
RightShoulder 3.639297 32.883152 -29.749014
RightArm 22.507885 -34.511064 34.288710
RightForeArm -55.932659 -0.000000 86.517305
RightHand -8.117647 -0.000000 -24.071832
RightHandThumb1 -24.326973 -0.000000 -32.862282
LeftUpLeg -141.245439 39.074933 -13.318211
LeftLeg 126.368032 -0.000000 -0.000000
LeftFoot -30.357721 -14.395941 -22.183445
LeftToeBase 7.196507 -0.000000 -0.000000
RightUpLeg -135.510582 -32.652474 10.135989
RightLeg 130.467088 -0.000000 -0.000000
RightFoot -36.756854 -1.061930 21.311620
RightToeBase 3.358997 -0.000000 -0.000000
